<?xml version="1.0" encoding="utf-8"?>
<!-- Generator: Adobe Illustrator 27.9.0, SVG Export Plug-In . SVG Version: 6.00 Build 0)  -->
<svg version="1.1" id="Layer_2_00000173138247306790285910000002748011392707535295_"
	 xmlns="http://www.w3.org/2000/svg" xmlns:xlink="http://www.w3.org/1999/xlink" x="0px" y="0px" viewBox="0 0 963.7 750.3"
	 style="enable-background:new 0 0 963.7 750.3;" xml:space="preserve">
<style type="text/css">
	.st0{fill:#FFFFFF;}
</style>
<g id="Layer_1-2">
	<g>
		<path d="M476.8,291c0,0-32.8-36.8-44-86c-5.9-25.9-0.8-44.6,12.7-63.4c13.2-18.4,61.9-105.4,193.2-141.3c4.3-1.2,8.7,1.9,9,6.4
			c4.3,60.3,2.7,156.1-28.5,197c-32.7,42.9-39.7,62.9-30.3,109.3c0,0-41.8,23.5-60.5,11.2S476.8,290.9,476.8,291L476.8,291z"/>
		<path class="st0" d="M517.8,312.3c-33.9-42.9-56.5-94.2-59.8-120.5c-2.9-18.7,4.3-35.6,8.5-42c7.2,23.5,17,44.8,27.2,55.4
			c-11-17.4-16.1-34.1-19.7-44.6c-2.9-8.5,1.8-21.6,7.5-28.5c4.4-5.3,7.8-9.3,7.8-9.3s13.8,46.1,28.6,61.5
			c-8.9-17.6-16.9-38.6-21.3-51.4c-2.6-7.5,0.1-17.1,5.3-23.1c2-2.3,4.4-5,7.4-8.2c11.4,40.9,24.2,57.5,24.6,58
			c-0.2-0.6-10.6-22.9-17.1-51.8c-1.3-5.9,1.1-12.7,5.1-17.3c5.8-6.7,12.2-14.6,12.2-14.6s4.4,43.3,19.4,63.1
			c-4.3-8.7-10.1-37.4-12.2-55c-1-8,4.5-17.3,11.2-21.8l11.2-7.4c0,0-0.1,35.3,8.9,67.4c-0.2-18.4-3.6-38.3-2.4-55.8
			c0.4-6.4,8.6-16.8,14.1-20c2.6-1.5,5.6-3.3,8.8-5.2c1.3-0.8,3.8,75.2,5.2,74.5c0.8-49.9-0.9-65.2,6.6-75.4
			c7.5-10.2,14.5-14,20-16.4c6.8,125.9-18.3,152-38.1,179.2c-10.8,14.8-30.5,65.9-20,119.7C566.7,322.7,540.5,342,517.8,312.3
			L517.8,312.3z"/>
		<path d="M555.6,277.6c0,0-14.1-26.8-12-42s27-49.9,44.1-62.2C577.2,182.7,552.3,231.2,555.6,277.6L555.6,277.6z"/>
	</g>
	<path d="M732.1,396.6c-7.7,54.8-79.6,63.8-79.6,63.8c9.9-9.1,8.9-14,8.9-14s-16.6,9.5-53.8,6.9c-22.1-1.5-31.5,0.9-40.4,6.8
		c-81.6,53.9-177.8,57.1-177.8,57.1c-12.9,10.7-61.6,44.2-96,43.6c-5.1-0.1-11.7-3.5-10.5-9.3c4.6,4.6,9.8,4.2,29.4-5.4
		c3.8-4.5-10.1-2.3-12.3,1.8c1.1-9.3,12.1-8.6,16.8-8.2c12.6-5.1,19.1-22.9,23.6-29.1c-21.1,6.2-55,12.6-75.4,16.1
		c-6.9,1.2-12.5-5.5-10.1-12.1c2.4-6.7,5.2-16,7.7-28.4c-2.7-5.7-8.1-12.6-14.9-19.1c-6.2-6-2.6-16.5,6.1-17.3
		c45.5-4.2,131.8-21.1,169-52.1c-61.7-22-106.2-23.3-135.1-66.2C249,263.4,250.9,168.2,270.3,74c0.9-4.1,5.5-5.4,9.2-3.4
		c62.8,33,95.1,49.5,131.6,108.1s50.5,108.8,106.3,126.4c20.8,8.4,40.9,6.4,63.4,2.4C717.8,290.3,738.7,349.1,732.1,396.6
		L732.1,396.6z"/>
	<path class="st0" d="M447.8,374.6c-53-8.7-99.7-30.4-123-43c-16.9-8.6-23-21-25.8-28.2c23.3,7.8,43.3,7.2,57.8,5
		c-20.5-1.2-35-4.9-45.7-8.1c-8.6-2.6-15.6-10.8-17.9-19.5c-1.8-6.7-3.1-11.8-3.1-11.8s45.5,15.6,66.7,12.5
		c-19.5-3-41.2-8.7-54.2-12.5c-7.5-2.3-13.8-10.1-15.7-17.7c-0.7-2.9-1.5-6.5-2.3-10.8c39.9,14.6,60.9,13.8,61.5,13.7
		c-0.6-0.2-24.8-4.7-52.1-16.2c-5.5-2.3-9.7-8.3-11.1-14.2c-2.1-8.6-4.8-18.4-4.8-18.4s37.8,21.6,62.6,20.9
		c-9.6-1.6-36.3-13.5-51.9-22.1c-7.1-3.9-11.5-13.7-11.2-21.8l0.5-13.4c0,0,28.7,20.6,60,32c-15-10.6-33.3-19.4-46.8-30.4
		c-5-4.1-8.6-16.7-8.1-23.1c0.3-3,0.6-6.5,0.9-10.2c0.1-1.5,63.4,40.7,63.6,39.1c-40.1-29.6-53.5-37.2-57.5-49.2s-2.9-20-1.7-25.8
		c106.4,67.7,113,103.3,123.6,135.2c5.8,17.3,35.8,63.2,85.8,85.9l-72.6-34.8l-46.7-54.2l20.1,90L447.8,374.6L447.8,374.6z"/>
	<path class="st0" d="M663.6,350.6c26.8-7.2,41.1,8,41.5,21s-7.6,36.9-16.7,43.7c-9.1,6.8,1.4-19.6-3.7-29.4s-12.2-11.5-18.5-8
		c-6.3,3.5-7.5,12.9-2.1,22.9c5,9.4,19.2,22.1,2.3,31.7s-37.2-16.6-35.8-38.5C631.9,372,637.9,357.5,663.6,350.6L663.6,350.6z"/>
	<path class="st0" d="M674.1,333.3c0,0-52.6-10.6-68.9,49c-7.5,27.3,8.1,49.7,8.1,49.7s-42.2-6.5-65.8,4.9
		c17.6-1.3,29.8-1.4,40.7,3.1c-27.6,0.7-59.3,10.8-59.3,10.8s-22.8,30.2-121.1,51.5c15.4-2.1,85.3-59.4,85.3-59.4
		s-81.6,46.7-199.6,40.4c12.7-3.3,174.7-31,216.1-112.4c-8.5,13.4-20.2,19.6-20.2,19.6s-7.2-27.5-9.2-30.3s-68.7-50.6-88.9-98.9
		c-6.5,25.4,42,98.3,56.5,113.4c-49.3-11.8-95-161.2-95-161.2l38.4,23.6c0,0,42.2,60.2,115.1,88.9
		C579.3,354.7,581,300.8,674.1,333.3L674.1,333.3z"/>
	<g>
		<path d="M155.1,645.2v105.1h-24.6l-68.7-55.4v55.4H19.3v-89.1L0,645.2h43.9l68.7,55.4v-55.4H155.1L155.1,645.2z"/>
		<path d="M318.3,645.2v105.1H184.6v-89.1l-19.3-16H318.3z M275.9,668.8h-48.8v58h48.8V668.8z"/>
		<path d="M475.6,668.8h-82.4v58h82.4v23.5H349v-89.1l-19.3-16h145.9L475.6,668.8L475.6,668.8z"/>
		<path d="M589.7,668.7v81.7h-44.2v-81.7h-32l-29.4-23.5h151.2v23.5H589.7L589.7,668.7z"/>
		<path d="M795.9,645.2v105.1H663V661l-19.4-15.9h61.7v81.5h48.2v-81.5H795.9z"/>
		<path d="M923,645.2l40.8,105.1h-45.9l-13.2-33.8h-51.9l-13.1,33.8h-33.4l34.7-89.3l-19.3-15.9H923L923,645.2z M895.6,693.1
			l-9.5-24.3h-14.8l-9.5,24.3H895.6z"/>
	</g>
</g>
</svg>
